<svg xmlns="http://www.w3.org/2000/svg" viewBox="0 0 1920 430.46">
    <g id="Layer_2" data-name="Layer 2">
        <g id="Layer_1-2" data-name="Layer 1">
            <path fill="#4e3903"
                d="M675.44,146.47a39.17,39.17,0,0,1-11.31,27.87q-11.31,11.91-29.29,17.86a124.83,124.83,0,0,1-39.42,6q-39.54,0-58.83-12T517.3,158.62q0-13.34,8.22-21.8t27-8.45a40.4,40.4,0,0,1,21.31,5.84q9.64,5.83,9.65,9.88a14.24,14.24,0,0,1-.71,3.81,19,19,0,0,0-.72,5.48q0,9.76,10.72,9.76,5.24,0,8.1-3.09a11.14,11.14,0,0,0,2.85-7.86,15.24,15.24,0,0,0-4.64-11,41,41,0,0,0-12-8.22q-7.38-3.44-16.31-6.66a172.15,172.15,0,0,1-17.86-7.62,100.57,100.57,0,0,1-16.32-10,42,42,0,0,1-12-14.76,46.13,46.13,0,0,1-4.64-21.08q0-22.87,20.48-37.75t53.11-14.89q37.4,0,56.09,11.55t18.7,26.8a28.87,28.87,0,0,1-8.93,21.55q-8.94,8.7-26.8,8.7-11.19,0-19.05-4.77t-7.86-8.81q0-.23.6-3.57a33.9,33.9,0,0,0,.59-5.72q0-10.48-9.29-10.48a8.86,8.86,0,0,0-6.67,2.74c-1.75,1.83-2.61,4.41-2.61,7.74q0,9.06,8.92,15.72A88.89,88.89,0,0,0,619,93.24q12.86,4.89,25.72,10.72a60.59,60.59,0,0,1,21.79,16.55Q675.45,131.23,675.44,146.47Z" />
            <path fill="#4e3903"
                d="M755,20.72a48.61,48.61,0,0,1,26.08,7.62,69.66,69.66,0,0,1,21.2,21.08,241.27,241.27,0,0,1,16.19,28.46,212.25,212.25,0,0,1,12.63,33.46q5.35,18.47,8.93,32.28t6.67,28.58Q849.78,187,851,191a1.35,1.35,0,0,1-1,1.67,174.15,174.15,0,0,1-32.62,2.85A224,224,0,0,1,781,192.68c-.79.16-1.35-.24-1.66-1.19q-4.77-31.44-5.48-34.54H729.27q-5.71,29.3-6.43,34.54a1.47,1.47,0,0,1-1.67,1.19,81.6,81.6,0,0,1-22.86,2.85,150.8,150.8,0,0,1-26.2-2.85,1.52,1.52,0,0,1-.71-1.67q11.9-39,23.58-71.45t16.67-45.37q5-13,5-16.32a20.84,20.84,0,0,0-1.55-8.33A16.89,16.89,0,0,1,713.55,45q0-7.38,12.51-15.95T755,20.72ZM735.46,122.18h32.87q-6.68-27.39-16.19-44.3a1.19,1.19,0,0,0-.84-.24c-.4,0-.59.08-.59.24Q743.8,92.88,735.46,122.18Z" />
            <path fill="#4e3903"
                d="M984.59,101.69q15.48,3.82,22.74,15a44.2,44.2,0,0,1,7.27,24.53q0,27.65-22.87,42.52t-61,14.88q-71.68,0-71.69-64.54V85q0-12.39-2.26-20.13t-4.52-10.84C850.77,52,850,50.49,850,49.54c0-1.75.84-3.77,2.5-6.08S857,38.7,861,36.08a74.87,74.87,0,0,1,14.29-7.15,110.53,110.53,0,0,1,21.56-5.35,181,181,0,0,1,28.93-2.14q37.38,0,58.59,11.43t21.2,33.34a40.51,40.51,0,0,1-2.15,13.34,31,31,0,0,1-5.24,9.88A52.5,52.5,0,0,1,992,95.75a23.61,23.61,0,0,1-5.24,3.56l-2.14,1.2Zm-46.92,55.5c4.12,0,7.66-1.86,10.59-5.59s4.41-8.86,4.41-15.37a39.37,39.37,0,0,0-1.55-11.07,27.64,27.64,0,0,0-3.21-7.75l-1.43-2.61q-11.67,3.81-16.67-.24a12.65,12.65,0,0,1-5-10.24,10.78,10.78,0,0,1,5.61-9.65,14.89,14.89,0,0,1,12-1.78,48.07,48.07,0,0,0,3.1-16.2q.24-8.81-7-13.11T922,61.92q-1.43,18.83-1.43,46.21T921.71,142Q924.58,157.19,937.67,157.19Z" />
            <path fill="#4e3903"
                d="M1108,21q22.86,0,40.37,7t28.1,19.53a84.52,84.52,0,0,1,15.85,28.35,109.29,109.29,0,0,1,5.24,34.41,103.07,103.07,0,0,1-5.36,33.7,85.52,85.52,0,0,1-16,28q-10.61,12.38-28.22,19.53t-40.26,7.14q-42.63,0-66.33-26.07t-23.69-64A91.79,91.79,0,0,1,1023.52,76a90.28,90.28,0,0,1,16.67-27.86q10.85-12.37,28.47-19.77T1108,21Zm-1,137.18q14.3,0,19.65-13.34t5.35-36q0-19.53-6-33.7T1107.71,61q-11.67,0-18,13.93t-6.31,35.61q0,20.49,6.08,34.06T1107,158.14Z" />
            <path fill="#4e3903"
                d="M1337.31,115.75l-.71,1.43q9.76,23.58,33.1,37.39,2.15,1.2,2.15,4.53a45.35,45.35,0,0,1-1.67,12,56.7,56.7,0,0,1-5.36,12.63,27.84,27.84,0,0,1-11.32,10.71,37.15,37.15,0,0,1-18.1,4.17,42.06,42.06,0,0,1-22.74-6.31,49.39,49.39,0,0,1-15.84-15.24,93,93,0,0,1-9.52-20,115.37,115.37,0,0,1-5.13-19.53,97.74,97.74,0,0,1-1.3-14.65,14.45,14.45,0,0,1,.59-5,8.09,8.09,0,0,1,3-3.09,49.2,49.2,0,0,0,11-13.58q3.57-6.9,3.58-17.15,0-12.87-7.86-18.1t-17.63-1.9V191.72a2.11,2.11,0,0,1-1.2,1.43q-12.37,3.1-30.72,3.1a147.64,147.64,0,0,1-30-3.1,2,2,0,0,1-.72-1.19V82.88q-.24-11.19-2.5-18.34t-4.41-10.24q-2.15-3.09-2.14-4.53,0-2.61,2.86-6t9.64-7.26a97.4,97.4,0,0,1,16.2-7.27,131,131,0,0,1,24.18-5.48,223.84,223.84,0,0,1,31.91-2.14q32.16,0,53,14.29t20.85,41.44Q1360.42,103.85,1337.31,115.75Z" />
            <path fill="#4e3903"
                d="M1515.46,144.8q4.51,0,4.52,4.77,0,6-5,14.05a78.78,78.78,0,0,1-13.58,16.08q-8.57,8-22.38,13.45a78.61,78.61,0,0,1-29.3,5.48q-29.78,0-49.41-14.65t-19.66-42.27q0-9.28-.12-32.16t-.11-24.29q0-12.62-2.14-20.36c-1.44-5.16-2.86-8.77-4.29-10.84s-2.15-3.65-2.15-4.76c0-2.06,1-4.37,3-6.91a39.14,39.14,0,0,1,8.69-7.74q5.73-3.93,16-6.54a93.33,93.33,0,0,1,23.12-2.63q13.8,0,34.05.71t23.58.72a62.89,62.89,0,0,0,12.86-1.19,77.79,77.79,0,0,0,8.81-2.26,16.25,16.25,0,0,1,4-1.07c1.59,0,3.29.91,5.12,2.74s3.57,5,5.24,9.64a47.5,47.5,0,0,1,2.5,16.2q0,15.95-9.88,25.48t-28.7,10.48q-13.1.48-37.39-1v14.29a215.54,215.54,0,0,0,24.65,0q11.77-.72,19.29-1.67c5-.63,8-.95,8.93-.95q4.05,0,4,8.33,0,11.2-8.1,20.13T1467.35,135a172.43,172.43,0,0,1-24.53-2.14q-.72,12.15,7.5,16.91t22.74,4.05a105,105,0,0,0,28-4.77Q1514.75,144.82,1515.46,144.8Z" />
            <path fill="#4e3903"
                d="M1680.75,146.47a39.18,39.18,0,0,1-11.32,27.87q-11.31,11.91-29.29,17.86a124.78,124.78,0,0,1-39.42,6q-39.54,0-58.83-12t-19.28-27.51q0-13.34,8.21-21.8t27-8.45a40.43,40.43,0,0,1,21.31,5.84q9.64,5.83,9.64,9.88a13.85,13.85,0,0,1-.71,3.81,19,19,0,0,0-.72,5.48q0,9.76,10.72,9.76,5.24,0,8.1-3.09a11.1,11.1,0,0,0,2.85-7.86,15.28,15.28,0,0,0-4.64-11,41,41,0,0,0-12-8.22q-7.4-3.44-16.32-6.66a173.08,173.08,0,0,1-17.86-7.62,100.57,100.57,0,0,1-16.32-10,42,42,0,0,1-12-14.76,46.13,46.13,0,0,1-4.64-21.08q0-22.87,20.48-37.75t53.11-14.89q37.39,0,56.1,11.55t18.69,26.8a28.87,28.87,0,0,1-8.93,21.55q-8.94,8.7-26.8,8.7-11.2,0-19-4.77T1611,75.26c0-.15.2-1.34.59-3.57a33,33,0,0,0,.6-5.72q0-10.48-9.29-10.48a8.84,8.84,0,0,0-6.66,2.74q-2.62,2.75-2.62,7.74,0,9.06,8.93,15.72a88.63,88.63,0,0,0,21.79,11.55Q1637.17,98.13,1650,104a60.5,60.5,0,0,1,21.79,16.55Q1680.75,131.23,1680.75,146.47Z" />
            <path fill="#4e3903"
                d="M642.66,377.66q-1.32,11.26,1.31,16.21t7,4.09a70.21,70.21,0,0,1,8.57-1.13,1.16,1.16,0,0,1,1.4.56,1.44,1.44,0,0,1,.28,1.41q-.57,4.21-6.88,8.71a24.92,24.92,0,0,1-14.8,4.49q-20.26,0-14.08-30.61h-.57q-19.65,30.6-50,30.61-24.43,0-37.63-19.66t-9-54.75q3.66-29.49,23-50.55T594.82,266q14.32,0,24.85,7.29a43,43,0,0,1,15.59,20.23l.84-.19,11.76-93.89a2.56,2.56,0,0,1,1.61-1.4,33.58,33.58,0,0,1,6.46-.84,26.22,26.22,0,0,1,7.27.8c.9.36,1.26.81,1.07,1.35Zm-63.88,21.71q16.85,0,32.72-18.26t18.67-40.44q2.8-23.58-7.3-42.68t-28.93-19.1q-16,0-30,15.87t-17.69,41.7q-4.79,30.9,5.75,46.9T578.78,399.37Z" />
            <path fill="#4e3903"
                d="M788.5,377.15q-1.11,11.82,1.41,16.74t7,4.07a74.84,74.84,0,0,1,8.71-1.13,1.16,1.16,0,0,1,1.4.56,1.39,1.39,0,0,1,.28,1.41q-.57,4.21-6.88,8.71A24.2,24.2,0,0,1,786.07,412q-16.05,0-11.28-30.89h-.56Q756.55,412,725.36,412q-24.71,0-38.75-20.78t-9-55.6q4.22-29.49,23.45-49.85T744.18,266q28.08.84,40.92,27.52l.88.08,3.06-24c0-.56.36-1,1.09-1.39a39.89,39.89,0,0,1,4.59-.84,21.69,21.69,0,0,1,6.11.62c.73.28,1.1.62,1.1,1Zm-59.94,22.22q16.86,0,32.72-18.25T780,340.69q3.38-25.56-6.6-43.68T744,278.89q-16,0-30.19,14.89T696,334.49q-4.5,31.17,5.34,48T728.56,399.37Z" />
            <path fill="#4e3903"
                d="M1003.65,203.35q9.27,0,19,.84a129.39,129.39,0,0,1,22.46,4.36,88.51,88.51,0,0,1,22.32,9.27,49.29,49.29,0,0,1,16.29,16.56,46,46,0,0,1,6.74,24.85q0,23.59-19.37,41.57t-40.16,21.9v.56q1.68,5.63,3.51,10.82c1.21,3.47,2.85,7.67,4.91,12.63a140,140,0,0,0,6.32,13.34c2.15,3.92,4.68,8.24,7.58,12.92a48.67,48.67,0,0,0,9,11.09,93.71,93.71,0,0,0,10.39,7.86,20.08,20.08,0,0,0,11.65,3.65,62,62,0,0,0,12.92-1.82c2.06-.37,3.08.38,3.08,2.25q0,4.2-7.43,10.24a27.82,27.82,0,0,1-18.11,6q-13.77,0-26.68-14.32a117,117,0,0,1-20.64-32.16Q1019.66,348,1015,333.51t-4.35-16.71c0-1.49,1.68-2.24,5.06-2.24q20.76-1.69,37.48-16.29t16.71-38.2q0-16.84-13.2-27.79A67.11,67.11,0,0,0,1026.11,218a114.79,114.79,0,0,0-34.82-1.41L968,408.63a2.61,2.61,0,0,1-1.67,1.4,39,39,0,0,1-7.8.84,29.19,29.19,0,0,1-8.08-.84c-.93-.36-1.31-.83-1.12-1.38l23-189.28-.29-.29a87.52,87.52,0,0,0-43.43,22.74q-18.15,17.43-18.7,35.66a23.59,23.59,0,0,0,.84,8.15c.75,2.62,1.13,4,1.13,4.21,0,1.13-.81,2.16-2.39,3.09a10.6,10.6,0,0,1-5.48,1.41,14.61,14.61,0,0,1-9.83-3.93q-4.5-3.95-4.49-14.05,0-19.08,16.15-35.94t42.4-26.82A159.48,159.48,0,0,1,1003.65,203.35Z" />
            <path fill="#4e3903"
                d="M1220.72,376.06c1.3,0,1.77.56,1.4,1.69q-.28,2.24-4.21,7.44a80.48,80.48,0,0,1-11,11.36q-7,6.18-18.82,10.82a68.41,68.41,0,0,1-25.26,4.63q-27.26,0-42.27-19.24t-10.81-52.09q3.92-33.14,24.71-53.49t46.61-21.2q23.31-.86,35,10.81t9.68,27.38q-2.8,23.31-21.06,34.82A74.77,74.77,0,0,1,1164,350.5a114.39,114.39,0,0,1-17.13-1.4c-6.18-.94-11.13-1.87-14.88-2.81l-5.34-1.4q-1.4,23.87,10,38.19t33,14.31a57.06,57.06,0,0,0,24.57-5.33,93.34,93.34,0,0,0,18.11-10.67Q1219,376.06,1220.72,376.06Zm-41.84-98.58q-13.47,0-24.85,9.28a65.25,65.25,0,0,0-17.55,21.62,98.15,98.15,0,0,0-8.72,25.55,140.47,140.47,0,0,0,33.7,3.93q18,0,31-7.3t15-24.15a24.13,24.13,0,0,0-5.89-20.08Q1194,277.5,1178.88,277.48Z" />
            <path fill="#4e3903"
                d="M1290.34,398a39.08,39.08,0,0,0,14.5-2.95c4.93-2,7.68-2.95,8.24-2.95,1.14,0,1.62.66,1.43,2-.37,3.36-4.31,7.21-11.79,11.51s-14.8,6.46-21.9,6.46q-23,0-26.4-18.82-2-9.81,2-40.43a7.42,7.42,0,0,0,.2-1.68l8.7-70.21h-16.77a1,1,0,0,1-1.12-1.12l1.13-9.55a1.8,1.8,0,0,1,1.4-1.41h16.86l4.2-34c0-.56.47-1,1.37-1.41a33.73,33.73,0,0,1,8.2-.84,42.6,42.6,0,0,1,4.93.82c.91.37,1.36.83,1.36,1.37l-4.21,34h39.75l.83.85v.56l-1.12,9.27a1.34,1.34,0,0,1-1.13,1.4h-39.83L1273.56,342q-5.05,29.81-2.52,42.88T1290.34,398Z" />
            <path fill="#4e3903"
                d="M1402.13,266q29.76,0,44.5,19.65t10.82,52q-3.95,31.44-23.31,52.93T1384.44,412q-27.81,0-43.67-19.37t-11.65-54.2a86.08,86.08,0,0,1,24.56-51.12Q1374.61,266,1402.13,266Zm-14.89,133.94q20.23,0,34.83-16.56t17.69-42.69q3.09-25.28-6.6-43.81t-32.43-18.53q-19.11,0-34.83,16.15t-19.09,42.26q-3.66,30.61,8.84,46.89T1387.24,399.92Z" />
            <path fill="#4e3903"
                d="M1562.47,320.74a12.61,12.61,0,0,1,1.54-3.37,54,54,0,0,0,3.23-7.45,41.28,41.28,0,0,0,2.25-10c.75-6.55,0-11.76-2.39-15.59s-6.41-5.38-12.21-4.63q-14.33,1.39-30.33,28.08a150.7,150.7,0,0,0-20.22,58.12l-5,42.41a2.67,2.67,0,0,1-1.69,1.41,36.22,36.22,0,0,1-6.74.84,26,26,0,0,1-7.29-.84c-1-.38-1.32-.85-1.13-1.41l13.48-109.8q1.39-10.4-1.4-14.88t-7.45-3.65a77.44,77.44,0,0,1-8.84,1.12,1,1,0,0,1-1.27-.43,2.9,2.9,0,0,1-.42-1.54q.56-3.93,7-8.56a25.28,25.28,0,0,1,15.16-4.63q18,0,15.16,23.58l-2.53,19.1h.56q8.7-18.81,21.2-30.61T1560.78,266q16-.28,22.47,9.54t4.5,25.28q-3.09,24.7-17.7,24.71a9.66,9.66,0,0,1-5.61-1.55C1562.94,322.94,1562.29,321.86,1562.47,320.74Z" />
            <path fill="#4e3903"
                d="M1645.29,398a39.08,39.08,0,0,0,14.5-2.95c4.93-2,7.67-2.95,8.24-2.95,1.14,0,1.62.66,1.43,2-.37,3.36-4.31,7.21-11.79,11.51s-14.79,6.46-21.9,6.46q-23,0-26.4-18.82-2-9.81,2-40.43a7.43,7.43,0,0,0,.21-1.68l8.69-70.21h-16.77a1,1,0,0,1-1.11-1.12l1.12-9.55a1.81,1.81,0,0,1,1.4-1.41h16.86l4.2-34c0-.56.46-1,1.37-1.41a33.73,33.73,0,0,1,8.2-.84,43,43,0,0,1,4.93.82c.9.37,1.36.83,1.36,1.37l-4.22,34h39.75l.84.85v.56l-1.12,9.27a1.34,1.34,0,0,1-1.13,1.4h-39.83L1628.51,342q-5.05,29.81-2.52,42.88T1645.29,398Z" />
            <path fill="#4e3903"
                d="M1902,311.47q10.66-.29,15,9.55t2.39,25.27a73.63,73.63,0,0,1-7.17,22.75,96.57,96.57,0,0,1-15.44,22.46,75,75,0,0,1-24.71,17.55,77.13,77.13,0,0,1-32.44,6.89q-45.21,0-53.36-40.73h-.56q-19.93,37.07-55.32,37.07-24.44,0-37.49-19.37t-8.84-54.2a90.38,90.38,0,0,1,23.16-51q19.53-21.48,43.67-21.48a43.87,43.87,0,0,1,25.13,7.29,37.85,37.85,0,0,1,15,20.23h.84l3.65-23.88c0-.55.47-1,1.4-1.4a35.68,35.68,0,0,1,5.9-.84,30.64,30.64,0,0,1,7.86.84c.94.38,1.41.85,1.41,1.4Q1802,330.56,1801.45,353a79.2,79.2,0,0,0,2.81,23.87q3.09,10.68,13,18.67t25.69,8a56.53,56.53,0,0,0,40.31-16.15q17-16.15,18.67-35.53.84-11.22-1.4-19.23c-1.51-5.33-3.14-9.22-4.92-11.65a28.53,28.53,0,0,1-2.67-3.94c.19-1.3,1.22-2.57,3.09-3.79A10.71,10.71,0,0,1,1902,311.47Zm-167.65,88.17q17.68,0,33.14-18.11T1785.72,341q2.8-23.58-7.16-42.68t-28.78-19.1q-15.73,0-30,16.15t-18,42.27q-4.21,30.32,6.17,46.33T1734.33,399.64Z" />
            <path fill="#4e3903"
                d="M0,161.69Q0,94.78,57.65,47.28,115.29,0,196.9,0q65.34,0,117.56,31.26,51.09,30.65,70.31,79.59a13.85,13.85,0,0,0,1.13,2.92,138,138,0,0,1,7,29.24q0,24-27.81,25.89l-6.1.21a82.69,82.69,0,0,1-21.48-2.92q-183.12-57-199.17-62.65a27,27,0,0,0-9.49-2.09,9.74,9.74,0,0,0-5.2,1.26q-5,2.51-1.58,9.81Q130.9,131.1,179.72,156q36.41,18.57,62.63,18.58a60,60,0,0,0,20.57-3.35c6.93-2.49,10.92-3.82,12-4a33.32,33.32,0,0,1,3.84-.21q7.69,0,18.09,3.75,5.88,2.21,48.6,21.62,12.66,6,24.42,18.53,21.93,23.4,24.19,56v5q0,65.64-57.88,112.22-57.65,46.38-139.26,46.38-70.31,0-124.56-35.82Q18.76,359.24,4.3,305c-.16-1.1-.45-2.62-.91-4.56q-.9-3.72-1.13-5.17c-.76-4-1.35-8.35-1.8-13.05q0-19.66,24.63-19.66a104.71,104.71,0,0,1,22.61,3q9.94,1.35,19,2.49,11.3,1.77,19,2.59,54.7,14.7,59.91,17.39a21.12,21.12,0,0,1,11.75,14.29Q162.09,320.71,173,324l101.5,30.23q4.07,1.25,5.65-2.69,1.57-4.14-2.26-5.59l-85-27.74c-2.57-.84-3.32-2.49-2.26-5s2.78-3.52,5.2-2.69l84.55,27.53c3,1,5,0,6.1-2.89s.37-5-2.49-6l-84.55-27.75c-2.56-.82-3.31-2.48-2.26-5s2.64-3.52,5.2-2.69l84.55,27.54c3,1,5.05,0,6.11-2.91s.29-5-2.72-6L206,284.68c-2.57-.82-3.32-2.55-2.26-5.17.9-2.48,2.63-3.32,5.2-2.48l85,27.74c2.71.83,4.6-.07,5.65-2.69s.23-4.62-2.49-5.59l-99.69-30.65a38.32,38.32,0,0,0-5.65-.41q-9,0-21.26,4.25a41.56,41.56,0,0,1-14.24,2.38c-1.5,0-3.09-.07-4.74-.21q-8.37-.83-99.92-32.8a119,119,0,0,0-12.66-6.43Q1.81,217,0,169.71Z" />
        </g>
    </g>
</svg>